<?xml version="1.0" encoding="UTF-8"?>
<svg version="1.1" viewBox="0 0 2048 877" width="1280" height="1280" xmlns="http://www.w3.org/2000/svg">
<path transform="translate(1207)" d="m0 0h841v490h-841l-1-377-17 2-12 4-6 4-4 6-2 6-2 20-1 21-1 95-3 28-5 21-6 16-8 14-10 13-7 7-14 10-16 8-18 6-15 3-10 1h-22l-18-2-21-5-16-7-12-7-11-9-8-9-7-11-6-12-6-19-3-18-1-10-1-145-2-14-4-8-8-5-15-3-10-1-2-1v-13h128l1 1v12l-3 1-19 2-11 4-4 5-3 9-1 10v129l2 20 5 21 5 13 7 13 11 13 13 9 13 6 12 3 7 1h25l15-3 13-5 10-6 10-9 9-12 8-17 5-16 4-24 1-11v-99l-2-24-3-15-4-6-5-4-11-4-21-3-3-1v-13h117z"/>
<path transform="translate(1767)" d="m0 0h281v490h-281z" fill="#F0B200"/>
<path transform="translate(876,99)" d="m0 0h128l1 1v12l-3 1-19 2-11 4-4 5-3 9-1 10v129l2 20 5 21 5 13 7 13 11 13 13 9 13 6 12 3 7 1h25l15-3 13-5 10-6 10-9 9-12 8-17 5-16 4-24 1-11v-99l-2-24-3-15-4-6-5-4-11-4-21-3-3-1v-13h244v13l-1 1-22 3-9 4-5 8-2 12-1 87h158l-1-86-2-13-5-8-9-4-12-2-11-1-1-1v-13h129v13l-1 1-24 3-9 4-4 4-3 9-1 11v203l2 15 3 6 5 4 8 3 23 3 1 1v12l-1 1h-131v-14l24-3 11-4 5-6 2-7 1-8 1-103h-158l1 104 2 11 3 6 5 4 8 3 23 3v14h-129l-1-279-17 2-12 4-6 4-4 6-2 6-2 20-1 21-1 95-3 28-5 21-6 16-8 14-10 13-7 7-14 10-16 8-18 6-15 3-10 1h-22l-18-2-21-5-16-7-12-7-11-9-8-9-7-11-6-12-6-19-3-18-1-10-1-145-2-14-4-8-8-5-15-3-10-1-2-1z" fill="#F0B200"/>
<path transform="translate(170,93)" d="m0 0h5l19 49 20 52 22 57 18 46 15 38 8 18 6 10 5 5 5 4 13 4 6 1h12l14-3 8-4 6-7 3-9 3-32 1-28v-136l-2-17-5-9-7-8-8-5-13-4-14-2-2-1v-13h74l7 7 7 8 54 60 7 8 11 12 7 8 11 12 7 8 11 12 7 8 45 50 7 8 11 12 5 6 2 1-1-142-2-30-2-14-4-8-6-5-10-4-11-2-11-1-3-1v-13h114v13l-13 2-12 3-9 6-5 10-2 16-1 17-1 39v190l-1 1h-16l-7-7-9-11-12-13-9-11-12-13-9-11-11-12-9-11-12-13-9-11-12-13-9-11-11-12-9-11-12-13-9-11-12-13-9-11-11-12-9-11-2-2v147l2 34 2 13 5 10 9 6 11 3 19 2 1 1v12l-1 1h-230l-1-1v-12l1-1 17-3 8-3 3-3 1-6-5-17-18-47-4-10v-2l-101 1-16 43-8 24v12l5 5 8 3 20 3v14h-105v-14l21-4 10-5 7-7 8-14 10-22 13-31 17-40 19-45 20-47 19-45 9-21zm-19 63-5 11-12 31-17 43-9 23v3h85l-1-6-17-46-18-49-4-10z" fill="#020202"/>
<path transform="translate(650,99)" d="m0 0h136l21 2 19 4 16 6 11 6 12 11 7 8 8 16 4 15 1 9v13l-2 14-6 18-6 10-8 10-8 8-13 9-16 8-20 6-19 3h-19l-33-8v85l2 10 4 7 6 4 12 3 21 2 1 1v12l-1 1h-132l-1-1v-12l1-1 23-3 9-4 5-6 2-6 1-7v-214l-2-11-4-7-8-4-11-2-11-1-2-1zm105 15-13 3-6 5-2 7v122l9 3 12 2h22l14-3 12-5 13-10 8-11 5-10 4-15 1-8v-21l-3-15-5-12-7-10-9-9-15-8-15-4-8-1z" fill="#010101"/>
<path transform="translate(876,99)" d="m0 0h128l1 1v12l-3 1-19 2-11 4-4 5-3 9-1 10v129l2 20 5 21 5 13 7 13 11 13 13 9 13 6 12 3 7 1h25l15-3 13-5 10-6 10-9 9-12 8-17 5-16 4-24 1-11v-99l-2-24-3-15-4-6-5-4-11-4-21-3-3-1v-13h117v13l-12 2-13 3-8 4-5 5-4 9-2 20-1 21-1 95-3 28-5 21-6 16-8 14-10 13-7 7-14 10-16 8-18 6-15 3-10 1h-22l-18-2-21-5-16-7-12-7-11-9-8-9-7-11-6-12-6-19-3-18-1-10-1-145-2-14-4-8-8-5-15-3-10-1-2-1z"/>
<path transform="translate(1207,113)" d="m0 0h11l16 3 6 3 6 7 2 7 1 12v202l-2 15-3 6-6 5-8 3-13 2h-10z"/>
<path transform="translate(1902,232)" d="m0 0h75l15 3 10 4 10 8 6 10 3 8 1 7v10l-3 14-6 11-10 10-16 8-15 3h-10l-17-5 1 49 3 7 6 3 14 2v7h-68v-7l15-3 4-5 1-4v-122l-3-7-5-2-11-2z"/>
<path transform="translate(1839,228)" d="m0 0h12l17 3 8 3 2 11 2 16v7l-1 1h-6l-5-12-4-8-4-5-6-4-7-2h-12l-8 3-5 4-5 10-1 5v7l3 10 6 8 11 8 24 13 11 8 9 9 6 12 1 4v18l-4 12-7 9-9 8-12 6-14 3h-17l-17-4-10-5-2-5-4-25v-9l7-1 8 19 7 9 8 7 11 4h11l11-4 5-5 4-7 1-3v-17l-5-10-10-9-21-12-14-9-9-8-7-11-3-9v-16l3-10 6-10 10-9 11-5z"/>
<path transform="translate(2008,627)" d="m0 0 4 1 19 50 6 15 4 4 7 2v3h-31v-3l6-2-1-8-4-10v-3h-26l-3 10-3 11 9 2v3h-59l-1 1h-10l-10-4-9-11-9-15-4-2-8-1 1 24 2 3 8 2v3h-33v-3l9-3 1-2v-57l-1-3-8-2v-4h35l11 2 7 4 4 6 1 3v9l-3 6-8 7-4 1 10 16 8 10 7 6 4 1 9-3 1-6v-49l-2-7-8-2v-4h32l1 4-9 2-1 2v61l5 1h7l6-3 6-12 18-43 5-12zm-119 5-3 1-1 2v31h13l7-4 4-6 1-8-2-8-4-5-8-3zm116 11-10 24v4h20l-2-9-7-19z" fill="#010101"/>
<path transform="translate(1955,240)" d="m0 0h11l13 4 8 6 6 9 3 12v14l-3 13-5 8-9 8-8 3-11 1-13-2-2-1v-68l3-5z" fill="#F0B200"/>
<path transform="translate(1828,776)" d="m0 0h32v3l-9 3v44l3 9 4 5 6 3 4 1h7l9-3 5-6 3-8 1-6v-30l-2-9-10-3v-3h60v3l-9 3-1 3v54l1 4 8 2 13-1 5-3 5-10h4l-1 9-3 10h-55v-4l9-2 1-3v-57l-2-3-9-1-6 3-1 7-1 35-4 13-7 8-8 4-4 1h-16l-9-3-8-7-4-10-1-5-1-43-2-2-7-2z"/>
<path transform="translate(432,627)" d="m0 0 4 1 20 52 6 14 1 3 9 2v3h-31v-3l7-3-6-18v-2h-26l-3 10-2 6 1 5 7 2v3h-59v-3l9-3 1-3v-55l-2-4-8-2v-4h32l1 4-9 2-1 3v57l2 3 3 1h7l5-2 5-8 18-43 7-17zm-3 16-10 25v3h20l-1-6-8-22z" fill="#010101"/>
<path transform="translate(1524,628)" d="m0 0h31v4l-7 2-1 1-1 26h39l-1-25-1-2-8-2v-4h32v4l-8 2-2 7v50l2 6 8 2v3h-33v-3l10-2 1-31h-39l1 30 9 3v3h-32v-3l9-2v-61l-1-2-9-3z" fill="#050505"/>
<path transform="translate(1349,628)" d="m0 0h40l14 2 10 4 8 7 6 12 1 13-2 10-4 8-7 8-10 6-15 4h-42v-3l9-3 1-2v-57l-1-3-8-2zm29 4-7 2-1 3v53l3 6 4 2h12l11-4 8-7 5-9 2-10-1-13-4-10-7-7-8-4-11-2z"/>
<path transform="translate(659,627)" d="m0 0h18l11 4 9 7 6 8 4 11v15l-3 10-6 9-8 7-8 4-8 2h-15l-12-4-8-6-7-8-4-9-1-4v-14l4-12 7-9 9-7zm2 4-8 3-7 7-5 12v20l4 11 6 9 10 6 11 1 9-3 5-5 4-5 3-9v-21l-4-12-6-8-9-5-3-1z" fill="#020202"/>
<path transform="translate(1647,774)" d="m0 0h13l13 4 9 7 6 7 4 9 1 5v12l-4 13-6 8-8 7-9 4-4 1h-19l-11-4-8-6-6-7-4-8-1-4v-17l4-11 7-9 8-6 10-4zm2 4-9 3-8 7-4 8-2 10v9l2 10 6 12 8 7 7 3h11l10-5 6-9 3-9v-18l-4-13-6-8-8-5-7-2z" fill="#010101"/>
<path transform="translate(1427,774)" d="m0 0h13l10 3 10 6 8 9 4 9 1 5v12l-4 13-6 8-8 7-9 4-4 1h-19l-11-4-8-6-6-7-4-9-1-4v-16l4-11 7-9 8-6 10-4zm2 4-9 3-8 7-4 8-2 10v9l3 13 5 9 8 7 7 3h11l10-5 6-8 3-10v-19l-4-12-6-8-8-5-7-2z"/>
<path transform="translate(1045,627)" d="m0 0h18l11 4 8 6 6 7 4 8 1 4v18l-4 10-4 6-5 5-9 6-11 3h-15l-12-4-8-6-7-8-4-10-1-5v-10l3-11 6-10 8-7 11-5zm2 4-9 4-7 8-3 7-1 5v17l4 12 6 8 6 5 9 3h7l8-3 6-5 5-10 2-9v-11l-2-10-6-12-7-6-8-3z" fill="#010101"/>
<path transform="translate(1809,627)" d="m0 0h18l11 4 8 6 7 8 4 10 1 12-3 14-7 11-9 7-10 4-4 1h-15l-10-3-10-6-7-8-4-8-2-10 1-13 4-10 8-10 10-6zm2 4-9 4-6 7-4 9-1 5v14l2 9 5 10 9 8 9 3h7l10-4 6-7 4-9 1-6v-14l-3-12-6-9-8-6-6-2z" fill="#010101"/>
<path transform="translate(2e3 774)" d="m0 0h13l12 4 9 6 6 7 4 8 2 14-2 12-6 12-9 8-8 4-6 2h-19l-11-4-6-4-5-5-4-5-4-10-1-5v-9l3-11 5-9 8-8 10-5zm1 4-9 3-6 5-6 12-1 5v15l3 11 6 10 8 6 6 2h11l8-4 7-8 3-8 1-6v-13l-3-12-5-8-5-5-8-4z" fill="#020202"/>
<path transform="translate(225,627)" d="m0 0h18l11 4 8 6 7 8 4 10 1 13-2 10-5 10-6 7-10 6-10 3h-15l-10-3-10-6-7-8-4-8-2-11 1-11 4-11 7-9 9-6zm2 4-10 5-6 8-3 7-1 5v14l3 11 5 9 8 7 9 3h7l10-4 7-8 4-13v-15l-3-12-6-9-6-5-8-3z" fill="#010101"/>
<path transform="translate(736,628)" d="m0 0h19l10 11 7 8 9 10 7 8 9 10 6 7v-44l-2-4-9-2v-4h28v4l-7 2-2 4-1 65h-5l-7-7-9-11-10-11-9-11-10-11-5-6v41l2 9 10 3v3h-29v-3l8-3 2-9v-48l-4-5-8-2z"/>
<path transform="translate(1097,628)" d="m0 0h18l9 9 7 8 9 10 7 8 9 10 8 9v-42l-1-6-10-2v-4h28v4l-7 2-2 3-1 15-1 51h-5l-24-28-9-10-9-11-7-8v43l2 7 9 3v3h-29v-3l9-3 1-2 1-10v-44l-3-5-9-3z"/>
<path transform="translate(1289,774)" d="m0 0h16l13 3 2 9 1 9h-5l-5-10-6-4-3-1h-16l-9 4-8 9-3 8-1 6v9l3 13 6 9 5 4 10 4h11l9-4 7-8 3-5 4 1-3 11-4 8-20 3-1 4 5 6v7l-7 6-7 2-1-4 6-4-1-5-3-3v-5l3-4-15-3-11-6-7-7-5-10-2-13 2-12 4-8 9-10 12-6z" fill="#030303"/>
<path transform="translate(508,627)" d="m0 0h22l10 2 2 8 1 10-4 1-6-11-7-4-4-1h-11l-9 3-7 5-5 8-3 14 2 16 5 10 9 8 12 3 12-2 8-6 6-9 4 1-2 9-4 9-15 3-6 1-1 3 5 6 1 5-3 5-8 5-5-1 1-3 5-3-1-6-3-3 1-5 2-3-16-4-9-5-5-4-7-11-2-7v-16l4-10 4-6 7-7 12-6z" fill="#030303"/>
<path transform="translate(1713,776)" d="m0 0h40l11 4 6 7 2 7-1 10-4 7-7 6-8 3h-12l-6-2 1 24 3 3 7 1v4h-33v-4l8-2 1-1v-61l-8-3zm23 4-2 2v32l1 1h13l6-4 3-3 2-7v-8l-3-7-6-5-2-1z"/>
<path transform="translate(1190,776)" d="m0 0h55l1 16-4 1-5-10-4-2h-20l-1 28 19-1 3-3 1-4h4v22l-4-1-2-6-2-1-19-1 1 27 2 3 6 1h10l9-2 4-5 4-7 4 1-4 17-1 1h-58v-4l9-2 1-1v-61l-9-3z"/>
<path transform="translate(1434,628)" d="m0 0h54l1 7v10h-4l-5-10-2-1h-22v27h17l4-2 2-6h4v22h-4l-2-7-22-1 1 23 2 6 2 1h19l6-3 6-10h4l-1 8-3 10h-59v-3l9-2 2-3v-58l-1-2-8-2z"/>
<path transform="translate(1799,774)" d="m0 0 3 1 21 55 7 14 8 3-1 3h-30v-4l7-2-3-11-4-9h-24l-6 16v4l8 2v4h-26v-4l8-3 6-12 15-36 8-19zm-4 17-5 11-5 13v3h21l-9-25z" fill="#010101"/>
<path transform="translate(1580,774)" d="m0 0 3 3 19 50 7 16 9 3v4h-31l1-4 6-2-1-6-5-13v-2l-25 1-6 16v5l8 1v4h-26v-4l8-3 7-14 15-36 7-17zm-5 17-10 25v2h21l-7-20-3-7z" fill="#010101"/>
<path transform="translate(1360,774)" d="m0 0 3 3 19 50 7 16 9 3v4h-31v-4l7-2-1-6-5-13v-2l-25 1-6 17v4l8 1v4h-26v-4l8-3 7-14 18-43 5-11zm-5 17-10 25v2h21l-7-20-3-7z" fill="#010101"/>
<path transform="translate(40,627)" d="m0 0 4 1 17 44 9 22 3 3 7 2v3h-31v-3l7-3-6-20h-26l-1 5-4 12 1 4 7 2v3h-27v-3l8-3 5-8 19-45 6-14zm-3 16-10 25v3h20l-1-7-8-21z" fill="#010101"/>
<path transform="translate(1218,627)" d="m0 0h4l25 65 4 5 7 2v3h-31v-3l7-2-1-6-5-14h-25l-6 17 1 3 7 2v3h-26v-3l8-3 7-14 15-36 7-17zm-3 16-10 26v2h21l-3-10-6-17z" fill="#020202"/>
<path transform="translate(857,627)" d="m0 0h4l8 20 16 42 4 7 8 3v3h-30v-3l6-2-1-7-5-13h-25l-5 14v6l7 2v3h-26v-3l9-4 10-22 17-41zm-3 17-10 25v2h21l-3-11-6-16z" fill="#010101"/>
<path transform="translate(586,627)" d="m0 0h4l17 44 9 22 4 4 6 2v3h-31v-3l7-2-1-7-5-13h-25l-5 14v6l7 2v3h-26v-3l9-4 9-20 19-46zm-3 16-10 26v2h21l-3-10-6-17z" fill="#010101"/>
<path transform="translate(319,627)" d="m0 0h22l11 3 2 17-4 1-6-11-7-4-4-1h-12l-9 3-8 7-5 10-1 4v17l4 11 6 8 8 5 9 2 10-1 8-4 6-7 3-5 4 1-3 10-4 8-13 3h-18l-12-3-10-6-8-9-4-10-1-4v-11l4-13 7-9 8-6 12-5z" fill="#020202"/>
<path transform="translate(934,627)" d="m0 0h22l9 2 2 2 2 16-4 1-6-11-7-4-4-1h-12l-9 3-9 8-5 12v19l5 12 6 7 10 5 11 1 10-3 6-5 6-9 3 1-1 7-4 10-3 2-12 2h-17l-12-3-10-6-8-9-4-9-1-4v-13l3-10 6-9 8-7 11-5z" fill="#010101"/>
<path transform="translate(1706,626)" d="m0 0 5 1h56l5-1 1 8v12h-4l-3-9-4-3-17-1 1 62 2 2 9 2v3h-35v-3l10-2 1-64-17 1-4 4-4 9-3-1v-9z"/>
<path transform="translate(103,627)" d="m0 0h16l7 2 2 9v7h-4l-5-10-5-3h-10l-6 4-1 3v9l5 6 22 12 6 7 2 5v8l-3 7-4 5-10 5-4 1h-14l-11-4-3-16v-2l4-1 6 11 1 3 4 2 6 2 9-1 4-2 3-6-1-9-5-6-20-11-7-8-2-6 1-9 4-7 9-6z" fill="#030303"/>
<path transform="translate(158,627)" d="m0 0h16l7 2 2 10v6h-4l-5-10-5-3h-10l-6 4-1 3v9l5 6 20 11 7 6 3 7v8l-3 7-4 5-10 5-4 1h-14l-11-4-3-16v-2l4-1 6 11 1 3 4 2 6 2 9-1 4-2 3-6-1-9-5-6-20-11-7-8-2-6 1-9 4-7 9-6z" fill="#020202"/>
<path transform="translate(1164,774)" d="m0 0h12l9 2 2 6 1 11h-4l-5-10-7-4h-7l-6 3-3 6 1 8 4 5 20 11 7 6 3 6v12l-6 9-12 6h-18l-9-3-3-13v-6h4l5 10 7 6 3 1h9l6-3 2-4v-10l-5-6-21-12-6-7-2-4v-10l4-8 6-5z" fill="#020202"/>
<path transform="translate(1672,627)" d="m0 0h16l7 2 2 7 1 9-4 1-5-10-6-4h-10l-4 2-3 6 1 9 5 5 8 5 10 5 9 8 2 5v11l-5 8-6 5-9 3h-14l-10-3-2-2-2-10v-7h4l5 10 6 5 5 2 10-1 5-5 1-2v-9l-6-7-18-10-6-5-4-7v-11l3-6 8-7z" fill="#020202"/>
<path transform="translate(1514,774)" d="m0 0h12l9 2 2 10v7h-4l-5-10-4-3-3-1h-7l-6 3-2 4v9l3 5 12 7 11 6 7 7 2 6v8l-4 8-7 6-8 3h-18l-9-4-3-15v-3l5 1 5 10 5 4 4 2h10l6-4 2-5-1-9-5-5-20-12-7-8-2-6 1-9 4-6 6-5z" fill="#010101"/>
<path transform="translate(1262,628)" d="m0 0h32v4l-8 2-1 2v58l1 2 3 1h17l6-4 5-9h4l-2 12-2 6h-56v-3l9-2 1-1v-61l-3-2-6-1z" fill="#010101"/>
<path transform="translate(1613,628)" d="m0 0h33v4l-8 2-2 4v55l2 4 8 2v3h-33v-3l9-3 1-2v-57l-1-3-9-2z"/>
<path transform="translate(975,628)" d="m0 0h32l1 4-9 2-1 2v61l10 2v3h-33v-3l9-3 1-5v-52l-2-5-8-2z"/>
<path transform="translate(580,612)" d="m0 0 9 2 2 1h7l3-3 3 1-1 4-4 5-2 1h-7l-7-3-6 1-2 3-4-2 4-7z" fill="#050505"/>
<path transform="translate(1593,759)" d="m0 0 3 1-2 6-4 4-5 1-9-3h-7l-2 3-4-1 2-5 5-5h7l8 3 5-1z" fill="#020202"/>
<path transform="translate(1373,759)" d="m0 0 3 1-2 6-4 4-5 1-9-3h-7l-2 3-4-1 2-5 5-5h7l8 3 5-1z" fill="#030303"/>
<path transform="translate(1827,609)" d="m0 0 4 1 3 6-6 3-16 5h-2l-1-4z" fill="#060606"/>
</svg>
