<?xml version="1.0" encoding="UTF-8"?>
<!DOCTYPE svg PUBLIC "-//W3C//DTD SVG 1.1//EN" "http://www.w3.org/Graphics/SVG/1.1/DTD/svg11.dtd">
<svg xmlns="http://www.w3.org/2000/svg" version="1.1" width="1280px" height="310px" style="shape-rendering:geometricPrecision; text-rendering:geometricPrecision; image-rendering:optimizeQuality; fill-rule:evenodd; clip-rule:evenodd" xmlns:xlink="http://www.w3.org/1999/xlink">
<g><path style="opacity:0.995" fill="#010000" d="M 1104.5,0.5 C 1104.5,102.5 1104.5,204.5 1104.5,306.5C 1104.5,307.167 1104.17,307.5 1103.5,307.5C 986.833,307.5 870.167,307.5 753.5,307.5C 753.5,286.833 753.5,266.167 753.5,245.5C 753.833,245.5 754.167,245.5 754.5,245.5C 781.328,246.498 808.328,246.831 835.5,246.5C 835.81,243.287 835.477,240.287 834.5,237.5C 829.681,236.434 824.681,235.6 819.5,235C 817.308,234.074 815.308,232.907 813.5,231.5C 811.11,228.311 809.777,224.644 809.5,220.5C 809.5,199.167 809.5,177.833 809.5,156.5C 841.507,156.167 873.507,156.5 905.5,157.5C 906.488,178.454 906.822,199.454 906.5,220.5C 906.302,225.262 904.635,229.428 901.5,233C 894.462,234.911 887.462,236.411 880.5,237.5C 879.523,240.287 879.19,243.287 879.5,246.5C 907.338,246.831 935.005,246.498 962.5,245.5C 962.5,242.5 962.5,239.5 962.5,236.5C 957.493,236.249 952.493,235.916 947.5,235.5C 943.592,234.723 940.592,232.723 938.5,229.5C 937.839,226.213 937.339,222.88 937,219.5C 936.5,176.168 936.333,132.835 936.5,89.5C 935.782,82.0941 938.782,76.9274 945.5,74C 949.191,73.5804 952.858,73.0804 956.5,72.5C 958.467,72.7394 960.301,72.4061 962,71.5C 962.498,68.5184 962.665,65.5184 962.5,62.5C 935.5,62.5 908.5,62.5 881.5,62.5C 881.19,65.7131 881.523,68.7131 882.5,71.5C 888.11,72.2655 893.776,73.4322 899.5,75C 901.649,76.152 903.482,77.652 905,79.5C 905.241,82.2889 905.908,84.9556 907,87.5C 907.5,105.83 907.667,124.164 907.5,142.5C 874.833,142.5 842.167,142.5 809.5,142.5C 809.5,129.5 809.5,116.5 809.5,103.5C 808.68,94.1968 809.847,85.1968 813,76.5C 819.098,74.2424 825.264,72.5757 831.5,71.5C 832.167,71.5 832.833,71.5 833.5,71.5C 834.477,68.7131 834.81,65.7131 834.5,62.5C 807.833,62.5 781.167,62.5 754.5,62.5C 754.5,42.1667 754.5,21.8333 754.5,1.5C 870.999,0.500479 987.665,0.167146 1104.5,0.5 Z"/></g>
<g><path style="opacity:0.427" fill="#b78b0e" d="M 1111.5,-0.5 C 1113.17,-0.5 1114.83,-0.5 1116.5,-0.5C 1116.83,0.833333 1117.17,0.833333 1117.5,-0.5C 1171.5,-0.5 1225.5,-0.5 1279.5,-0.5C 1279.5,0.166667 1279.5,0.833333 1279.5,1.5C 1223.16,2.16259 1167.16,1.49592 1111.5,-0.5 Z"/></g>
<g><path style="opacity:1" fill="#e8b206" d="M 1110.5,-0.5 C 1110.83,-0.5 1111.17,-0.5 1111.5,-0.5C 1167.16,1.49592 1223.16,2.16259 1279.5,1.5C 1279.5,4.16667 1279.5,6.83333 1279.5,9.5C 1226.15,9.78598 1172.82,9.78598 1119.5,9.5C 1118.89,3.20673 1118.06,3.54006 1117,10.5C 1116.31,11.3567 1115.48,12.0233 1114.5,12.5C 1113.05,10.3894 1112.05,8.05611 1111.5,5.5C 1110.37,4.39612 1109.54,4.72945 1109,6.5C 1108.33,105.167 1108.33,203.833 1109,302.5C 1110.38,303.256 1110.55,303.922 1109.5,304.5C 1108.5,304.586 1107.67,304.252 1107,303.5C 1106.17,202.793 1106.34,102.127 1107.5,1.5C 1109.18,1.71481 1110.18,1.04814 1110.5,-0.5 Z"/></g>
<g><path style="opacity:1" fill="#edb201" d="M 1279.5,9.5 C 1279.5,108.167 1279.5,206.833 1279.5,305.5C 1222.66,305.832 1166,305.499 1109.5,304.5C 1110.55,303.922 1110.38,303.256 1109,302.5C 1108.33,203.833 1108.33,105.167 1109,6.5C 1109.54,4.72945 1110.37,4.39612 1111.5,5.5C 1112.05,8.05611 1113.05,10.3894 1114.5,12.5C 1115.48,12.0233 1116.31,11.3567 1117,10.5C 1118.06,3.54006 1118.89,3.20673 1119.5,9.5C 1172.82,9.78598 1226.15,9.78598 1279.5,9.5 Z"/></g>
<g><path style="opacity:1" fill="#ddb42c" d="M 1107.5,1.5 C 1106.34,102.127 1106.17,202.793 1107,303.5C 1107.67,304.252 1108.5,304.586 1109.5,304.5C 1166,305.499 1222.66,305.832 1279.5,305.5C 1279.5,305.833 1279.5,306.167 1279.5,306.5C 1221.83,306.5 1164.17,306.5 1106.5,306.5C 1105.84,255.57 1105.5,204.57 1105.5,153.5C 1105.5,102.496 1106.17,51.8289 1107.5,1.5 Z"/></g>
<g><path style="opacity:0.094" fill="#4d4244" d="M 754.5,1.5 C 754.5,21.8333 754.5,42.1667 754.5,62.5C 754.167,62.5 753.833,62.5 753.5,62.5C 752.209,62.7373 751.209,62.404 750.5,61.5C 751.5,61.5 752.5,61.5 753.5,61.5C 753.17,41.3264 753.503,21.3264 754.5,1.5 Z"/></g>
<g><path style="opacity:0.016" fill="#747271" d="M 583.5,61.5 C 598.504,61.3334 613.504,61.5001 628.5,62C 629.817,64.9365 629.817,67.7699 628.5,70.5C 628.802,67.9407 628.468,65.6074 627.5,63.5C 612.833,62.8333 598.167,62.1667 583.5,61.5 Z"/></g>
<g><path style="opacity:0.988" fill="#070607" d="M 223.5,202.5 C 224.833,166.167 224.833,129.833 223.5,93.5C 221.655,85.821 217.321,79.9876 210.5,76C 204.777,74.4863 199.11,72.8196 193.5,71C 192.833,68.6667 192.167,66.3333 191.5,64C 207.348,62.3508 223.348,62.0175 239.5,63C 280.744,107.739 321.411,152.906 361.5,198.5C 361.5,198.833 361.5,199.167 361.5,199.5C 361.56,200.043 361.893,200.376 362.5,200.5C 363.794,176.15 363.794,151.817 362.5,127.5C 363.103,118.89 362.436,110.223 360.5,101.5C 361.151,94.7101 360.318,88.0434 358,81.5C 356.954,79.9095 355.787,78.4095 354.5,77C 347.52,74.3454 340.52,72.1787 333.5,70.5C 332.631,68.283 332.298,65.9496 332.5,63.5C 355.833,63.5 379.167,63.5 402.5,63.5C 402.721,66.2788 402.388,68.9455 401.5,71.5C 395.794,72.3435 390.127,74.1768 384.5,77C 380.473,80.9753 378.473,85.8086 378.5,91.5C 377.047,98.1086 376.381,104.942 376.5,112C 376.501,116.347 376.834,120.514 377.5,124.5C 376.406,165.023 376.406,205.357 377.5,245.5C 377.167,246.167 376.833,246.833 376.5,247.5C 372.959,248.2 369.459,248.867 366,249.5C 323.531,201.879 281.365,154.212 239.5,106.5C 239.5,106.167 239.5,105.833 239.5,105.5C 239.631,104.624 239.298,103.957 238.5,103.5C 237.123,139.844 237.29,176.177 239,212.5C 239.232,213.737 239.732,214.737 240.5,215.5C 240.762,220.65 242.095,225.484 244.5,230C 250.583,233.807 257.583,236.14 265.5,237C 266.71,238.039 267.71,239.206 268.5,240.5C 268.714,242.144 268.38,243.644 267.5,245C 219.501,245.5 171.501,245.667 123.5,245.5C 123.274,242.751 123.607,240.084 124.5,237.5C 129.598,236.314 134.598,234.814 139.5,233C 142.077,229.738 142.077,226.405 139.5,223C 139.833,222.667 140.167,222.333 140.5,222C 134.907,208.316 129.74,194.483 125,180.5C 104.585,181.249 83.7516,181.583 62.5,181.5C 60.0715,190.125 57.0715,198.458 53.5,206.5C 51.2251,211.216 49.3918,216.216 48,221.5C 47.2204,223.387 47.3871,225.054 48.5,226.5C 48.0807,229.325 49.0807,231.491 51.5,233C 55.9195,234.418 60.4195,235.585 65,236.5C 68.3558,238.996 69.1892,242.162 67.5,246C 45.8359,246.5 24.1692,246.667 2.5,246.5C 2.5,243.167 2.5,239.833 2.5,236.5C 11.9527,236.79 19.786,233.456 26,226.5C 32.4426,213.342 38.6092,200.508 44.5,188C 44.1667,187.667 43.8333,187.333 43.5,187C 49.0731,175.519 54.4065,163.685 59.5,151.5C 62.1976,147.113 64.531,142.446 66.5,137.5C 66.3764,136.893 66.0431,136.56 65.5,136.5C 76.2632,111.97 86.7632,87.3038 97,62.5C 100.825,60.1139 104.992,58.9472 109.5,59C 129.431,109.067 149.265,159.567 169,210.5C 171.457,216.748 174.457,222.748 178,228.5C 189.715,237.579 202.215,238.745 215.5,232C 221.056,225.814 223.056,218.647 221.5,210.5C 222.482,207.904 223.149,205.238 223.5,202.5 Z M 102.5,117.5 C 103.405,122.653 104.905,127.653 107,132.5C 107.383,133.056 107.883,133.389 108.5,133.5C 109.071,136.477 110.071,139.31 111.5,142C 111.167,142.333 110.833,142.667 110.5,143C 114.317,150.526 117.65,158.693 120.5,167.5C 103.554,166.293 86.3871,166.293 69,167.5C 69.1085,166.231 68.9418,165.231 68.5,164.5C 69.8772,162.711 70.8772,160.711 71.5,158.5C 72.6737,157.486 73.3404,156.153 73.5,154.5C 75.5284,147.716 77.8617,141.049 80.5,134.5C 84.1556,129.467 86.4889,123.801 87.5,117.5C 90.1395,111.329 92.6395,104.996 95,98.5C 97.3188,104.958 99.8188,111.291 102.5,117.5 Z"/></g>
<g><path style="opacity:0.355" fill="#453741" d="M 499.5,62.5 C 468.671,63.4982 437.671,63.8315 406.5,63.5C 406.5,66.1667 406.5,68.8333 406.5,71.5C 405.542,71.0472 404.708,70.3805 404,69.5C 403.583,70.756 402.75,71.4226 401.5,71.5C 402.388,68.9455 402.721,66.2788 402.5,63.5C 379.167,63.5 355.833,63.5 332.5,63.5C 332.298,65.9496 332.631,68.283 333.5,70.5C 331.631,68.3647 330.964,65.6981 331.5,62.5C 386.601,62.3261 442.601,62.3261 499.5,62.5 Z"/></g>
<g><path style="opacity:0.476" fill="#44323e" d="M 583.5,61.5 C 598.167,62.1667 612.833,62.8333 627.5,63.5C 600.833,63.5 574.167,63.5 547.5,63.5C 547.5,66.1667 547.5,68.8333 547.5,71.5C 546.842,70.2067 546.508,68.7067 546.5,67C 546.629,65.0194 547.296,63.3528 548.5,62C 560.162,61.5001 571.829,61.3335 583.5,61.5 Z"/></g>
<g><path style="opacity:0.656" fill="#483440" d="M 750.5,61.5 C 751.209,62.404 752.209,62.7373 753.5,62.5C 753.5,62.8333 753.5,63.1667 753.5,63.5C 730.994,63.8308 708.66,63.4974 686.5,62.5C 707.66,61.5027 728.993,61.1694 750.5,61.5 Z"/></g>
<g><path style="opacity:1" fill="#6c5413" d="M 753.5,63.5 C 753.5,63.1667 753.5,62.8333 753.5,62.5C 753.833,62.5 754.167,62.5 754.5,62.5C 781.167,62.5 807.833,62.5 834.5,62.5C 834.81,65.7131 834.477,68.7131 833.5,71.5C 833.5,68.8333 833.5,66.1667 833.5,63.5C 807.167,63.5 780.833,63.5 754.5,63.5C 754.167,63.5 753.833,63.5 753.5,63.5 Z"/></g>
<g><path style="opacity:1" fill="#77601f" d="M 956.5,72.5 C 957.5,71.8333 958.5,71.1667 959.5,70.5C 961.344,68.7211 962.01,66.3878 961.5,63.5C 935.167,63.5 908.833,63.5 882.5,63.5C 882.5,66.1667 882.5,68.8333 882.5,71.5C 881.523,68.7131 881.19,65.7131 881.5,62.5C 908.5,62.5 935.5,62.5 962.5,62.5C 962.665,65.5184 962.498,68.5184 962,71.5C 960.301,72.4061 958.467,72.7394 956.5,72.5 Z"/></g>
<g><path style="opacity:0.988" fill="#060506" d="M 499.5,62.5 C 511.819,64.2759 523.153,67.9426 533.5,73.5C 543.662,81.4909 549.995,91.8242 552.5,104.5C 552.987,113.447 552.321,122.28 550.5,131C 550.57,131.765 550.903,132.265 551.5,132.5C 542.337,154.942 525.67,168.109 501.5,172C 487.612,174.488 473.945,173.654 460.5,169.5C 460.064,188.88 460.564,208.213 462,227.5C 462.774,229.939 464.274,231.773 466.5,233C 473.381,234.902 480.381,236.236 487.5,237C 488.423,239.041 488.756,241.208 488.5,243.5C 460.726,245.478 432.726,246.145 404.5,245.5C 403.068,242.733 403.401,240.066 405.5,237.5C 412.135,236.627 418.469,234.793 424.5,232C 427.074,229.682 428.741,226.849 429.5,223.5C 430.665,177.668 430.832,131.668 430,85.5C 429.802,83.6183 429.302,81.9516 428.5,80.5C 426.632,77.1292 423.798,74.7958 420,73.5C 419.667,73.8333 419.333,74.1667 419,74.5C 414.865,73.3391 410.698,72.3391 406.5,71.5C 406.5,68.8333 406.5,66.1667 406.5,63.5C 437.671,63.8315 468.671,63.4982 499.5,62.5 Z M 461.5,158.5 C 460.103,157.181 459.437,155.514 459.5,153.5C 459.312,128.502 459.646,103.502 460.5,78.5C 461.899,75.6097 464.232,74.1097 467.5,74C 491.409,69.3079 508.576,77.8079 519,99.5C 521.491,112.684 520.824,125.684 517,138.5C 510.453,151.314 500.286,158.481 486.5,160C 477.873,160.525 469.54,160.025 461.5,158.5 Z"/></g>
<g><path style="opacity:0.982" fill="#070506" d="M 686.5,62.5 C 708.66,63.4974 730.994,63.8308 753.5,63.5C 753.833,63.5 754.167,63.5 754.5,63.5C 754.5,65.8333 754.5,68.1667 754.5,70.5C 748.623,71.7998 742.956,73.4665 737.5,75.5C 736.035,76.7368 734.368,77.7368 732.5,78.5C 730.864,79.7489 729.697,81.4156 729,83.5C 726.497,95.5677 725.997,107.568 727.5,119.5C 726.681,136.76 726.181,154.093 726,171.5C 723.023,227.716 693.523,254.05 637.5,250.5C 611.656,248.686 592.49,236.686 580,214.5C 576.075,202.577 573.575,190.077 572.5,177C 573.383,162.047 573.716,147.047 573.5,132C 572.724,117.183 572.224,102.349 572,87.5C 572.131,83.1031 570.631,79.4365 567.5,76.5C 566.653,75.0337 565.32,74.2004 563.5,74C 559.23,72.9246 554.897,72.4246 550.5,72.5C 549.209,72.7373 548.209,72.404 547.5,71.5C 547.5,68.8333 547.5,66.1667 547.5,63.5C 574.167,63.5 600.833,63.5 627.5,63.5C 628.468,65.6074 628.802,67.9407 628.5,70.5C 627.713,72.1042 626.38,72.7709 624.5,72.5C 618.557,71.9936 612.89,72.9936 607.5,75.5C 606.702,75.9569 606.369,76.6236 606.5,77.5C 606.34,79.153 605.674,80.4863 604.5,81.5C 603.732,82.2625 603.232,83.2625 603,84.5C 602.169,114.336 602.336,144.003 603.5,173.5C 606.663,218.168 630.33,237.001 674.5,230C 689.974,225.193 700.14,215.026 705,199.5C 708.043,190.499 710.209,181.332 711.5,172C 711.741,147.22 711.241,122.053 710,96.5C 709.809,90.5382 708.475,84.8715 706,79.5C 703.489,77.4372 700.656,75.9372 697.5,75C 691.881,74.2107 686.548,72.5441 681.5,70C 680.565,67.6194 680.232,65.1194 680.5,62.5C 682.5,62.5 684.5,62.5 686.5,62.5 Z"/></g>
<g><path style="opacity:1" fill="#dab027" d="M 959.5,70.5 C 959.5,68.8333 959.5,67.1667 959.5,65.5C 934.788,65.5122 910.122,65.6788 885.5,66C 884.167,67.8402 884.334,68.3402 886,67.5C 890.949,69.3702 896.116,70.8702 901.5,72C 906.362,74.2077 908.862,78.041 909,83.5C 909.499,87.4862 909.666,91.4862 909.5,95.5C 909.667,109.504 909.5,123.504 909,137.5C 908.802,139.382 908.302,141.048 907.5,142.5C 907.667,124.164 907.5,105.83 907,87.5C 905.908,84.9556 905.241,82.2889 905,79.5C 903.482,77.652 901.649,76.152 899.5,75C 893.776,73.4322 888.11,72.2655 882.5,71.5C 882.5,68.8333 882.5,66.1667 882.5,63.5C 908.833,63.5 935.167,63.5 961.5,63.5C 962.01,66.3878 961.344,68.7211 959.5,70.5 Z"/></g>
<g><path style="opacity:1" fill="#ebb208" d="M 959.5,70.5 C 958.5,71.1667 957.5,71.8333 956.5,72.5C 952.858,73.0804 949.191,73.5804 945.5,74C 938.782,76.9274 935.782,82.0941 936.5,89.5C 935.335,133.998 935.169,178.665 936,223.5C 936.037,225.974 936.87,227.974 938.5,229.5C 940.592,232.723 943.592,234.723 947.5,235.5C 947.611,236.117 947.944,236.617 948.5,237C 952.211,237.175 955.878,237.675 959.5,238.5C 960.767,240.371 960.767,242.204 959.5,244C 934.167,244.667 908.833,244.667 883.5,244C 881.808,242.599 881.141,240.766 881.5,238.5C 887.727,237.063 894.06,236.23 900.5,236C 906.198,232.432 908.531,227.265 907.5,220.5C 907.5,198.833 907.5,177.167 907.5,155.5C 906.705,151.406 908.038,148.239 911.5,146C 908.956,143.778 908.956,141.611 911.5,139.5C 910.901,124.961 910.234,110.295 909.5,95.5C 909.666,91.4862 909.499,87.4862 909,83.5C 908.862,78.041 906.362,74.2077 901.5,72C 896.116,70.8702 890.949,69.3702 886,67.5C 884.334,68.3402 884.167,67.8402 885.5,66C 910.122,65.6788 934.788,65.5122 959.5,65.5C 959.5,67.1667 959.5,68.8333 959.5,70.5 Z"/></g>
<g><path style="opacity:1" fill="#d7b13b" d="M 754.5,63.5 C 780.833,63.5 807.167,63.5 833.5,63.5C 833.5,66.1667 833.5,68.8333 833.5,71.5C 832.833,71.5 832.167,71.5 831.5,71.5C 831.5,69.1667 831.5,66.8333 831.5,64.5C 806.833,64.5 782.167,64.5 757.5,64.5C 757.261,66.4672 757.594,68.3005 758.5,70C 763.21,70.3751 767.877,71.0418 772.5,72C 774.426,72.4224 775.426,73.5891 775.5,75.5C 775.167,75.5 774.833,75.5 774.5,75.5C 771.074,73.7261 767.407,72.7261 763.5,72.5C 760.5,71.8333 757.5,71.1667 754.5,70.5C 754.5,68.1667 754.5,65.8333 754.5,63.5 Z"/></g>
<g><path style="opacity:0.133" fill="#50494b" d="M 550.5,72.5 C 554.897,72.4246 559.23,72.9246 563.5,74C 565.32,74.2004 566.653,75.0337 567.5,76.5C 561.78,74.8933 556.114,73.56 550.5,72.5 Z"/></g>
<g><path style="opacity:1" fill="#ecb203" d="M 831.5,71.5 C 825.036,71.8867 818.703,72.3867 812.5,73C 811.333,74.5 810.167,76 809,77.5C 807.761,83.4348 807.261,89.4348 807.5,95.5C 806.769,108.51 806.103,121.676 805.5,135C 806.234,139.167 806.9,143.333 807.5,147.5C 808.822,147.33 809.989,147.663 811,148.5C 840.958,147.826 870.958,147.159 901,146.5C 904.137,147.945 904.303,149.778 901.5,152C 870.524,151.388 839.524,151.388 808.5,152C 806.643,153.182 805.643,154.849 805.5,157C 806.443,180.815 807.11,204.649 807.5,228.5C 806.07,228.579 804.736,228.246 803.5,227.5C 802.451,230.08 801.784,232.746 801.5,235.5C 803.991,235.16 806.158,234.16 808,232.5C 811.022,233.862 813.022,236.195 814,239.5C 819.841,238.386 825.674,238.719 831.5,240.5C 831.291,241.086 830.957,241.586 830.5,242C 809.503,242.5 788.503,242.667 767.5,242.5C 767.5,241.167 767.5,239.833 767.5,238.5C 770.175,237.645 772.842,236.478 775.5,235C 776.823,234.184 777.489,233.017 777.5,231.5C 778.75,231.423 779.583,230.756 780,229.5C 780.719,225.855 781.219,222.188 781.5,218.5C 782.665,173.335 782.831,128.002 782,82.5C 780.924,79.921 779.091,78.2543 776.5,77.5C 776.167,76.8333 775.833,76.1667 775.5,75.5C 775.426,73.5891 774.426,72.4224 772.5,72C 767.877,71.0418 763.21,70.3751 758.5,70C 757.594,68.3005 757.261,66.4672 757.5,64.5C 782.167,64.5 806.833,64.5 831.5,64.5C 831.5,66.8333 831.5,69.1667 831.5,71.5 Z"/></g>
<g><path style="opacity:0.024" fill="#524c4e" d="M 624.5,72.5 C 618.379,73.3975 612.379,75.0641 606.5,77.5C 606.369,76.6236 606.702,75.9569 607.5,75.5C 612.89,72.9936 618.557,71.9936 624.5,72.5 Z"/></g>
<g><path style="opacity:0.993" fill="#020101" d="M 763.5,72.5 C 767.407,72.7261 771.074,73.7261 774.5,75.5C 776.455,82.1148 777.955,88.7814 779,95.5C 779.911,137.849 779.577,180.182 778,222.5C 776.878,225.076 775.878,227.743 775,230.5C 772.882,231.283 771.382,232.616 770.5,234.5C 768.485,235.924 766.152,236.59 763.5,236.5C 760.5,236.5 757.5,236.5 754.5,236.5C 754.5,181.833 754.5,127.167 754.5,72.5C 757.5,72.5 760.5,72.5 763.5,72.5 Z"/></g>
<g><path style="opacity:0.204" fill="#453f40" d="M 732.5,78.5 C 728.428,91.8127 726.761,105.479 727.5,119.5C 725.997,107.568 726.497,95.5677 729,83.5C 729.697,81.4156 730.864,79.7489 732.5,78.5 Z"/></g>
<g><path style="opacity:1" fill="#d7ab2f" d="M 776.5,77.5 C 779.091,78.2543 780.924,79.921 782,82.5C 782.831,128.002 782.665,173.335 781.5,218.5C 781.832,173.664 781.499,128.997 780.5,84.5C 779.42,82.0038 778.086,79.6705 776.5,77.5 Z"/></g>
<g><path style="opacity:1" fill="#190800" d="M 774.5,75.5 C 774.833,75.5 775.167,75.5 775.5,75.5C 775.833,76.1667 776.167,76.8333 776.5,77.5C 778.086,79.6705 779.42,82.0038 780.5,84.5C 780.667,129.501 780.5,174.501 780,219.5C 779.815,223.675 778.981,227.675 777.5,231.5C 775.154,232.523 772.821,233.523 770.5,234.5C 771.382,232.616 772.882,231.283 775,230.5C 775.878,227.743 776.878,225.076 778,222.5C 779.577,180.182 779.911,137.849 779,95.5C 777.955,88.7814 776.455,82.1148 774.5,75.5 Z"/></g>
<g><path style="opacity:0.153" fill="#3c363c" d="M 460.5,78.5 C 459.646,103.502 459.312,128.502 459.5,153.5C 459.437,155.514 460.103,157.181 461.5,158.5C 460.5,158.5 459.5,158.5 458.5,158.5C 458.333,132.498 458.5,106.498 459,80.5C 459.278,79.5842 459.778,78.9175 460.5,78.5 Z"/></g>
<g><path style="opacity:1" fill="#a08338" d="M 936.5,89.5 C 936.333,132.835 936.5,176.168 937,219.5C 937.339,222.88 937.839,226.213 938.5,229.5C 936.87,227.974 936.037,225.974 936,223.5C 935.169,178.665 935.335,133.998 936.5,89.5 Z"/></g>
<g><path style="opacity:1" fill="#b99c4e" d="M 780.5,84.5 C 781.499,128.997 781.832,173.664 781.5,218.5C 781.219,222.188 780.719,225.855 780,229.5C 779.583,230.756 778.75,231.423 777.5,231.5C 778.981,227.675 779.815,223.675 780,219.5C 780.5,174.501 780.667,129.501 780.5,84.5 Z"/></g>
<g><path style="opacity:0.169" fill="#3e353c" d="M 378.5,91.5 C 377.834,102.487 377.501,113.487 377.5,124.5C 376.834,120.514 376.501,116.347 376.5,112C 376.381,104.942 377.047,98.1086 378.5,91.5 Z"/></g>
<g><path style="opacity:0.031" fill="#434242" d="M 604.5,81.5 C 603.564,112.152 603.23,142.819 603.5,173.5C 602.336,144.003 602.169,114.336 603,84.5C 603.232,83.2625 603.732,82.2625 604.5,81.5 Z"/></g>
<g><path style="opacity:1" fill="#d3ab2a" d="M 831.5,71.5 C 825.264,72.5757 819.098,74.2424 813,76.5C 809.847,85.1968 808.68,94.1968 809.5,103.5C 808.505,116.323 808.171,129.323 808.5,142.5C 807.504,127.009 807.17,111.342 807.5,95.5C 807.261,89.4348 807.761,83.4348 809,77.5C 810.167,76 811.333,74.5 812.5,73C 818.703,72.3867 825.036,71.8867 831.5,71.5 Z"/></g>
<g><path style="opacity:0.247" fill="#3a2f38" d="M 552.5,104.5 C 554.024,113.791 553.691,123.124 551.5,132.5C 550.903,132.265 550.57,131.765 550.5,131C 552.321,122.28 552.987,113.447 552.5,104.5 Z"/></g>
<g><path style="opacity:0.083" fill="#443740" d="M 223.5,93.5 C 224.833,129.833 224.833,166.167 223.5,202.5C 223.49,166.01 223.49,129.676 223.5,93.5 Z"/></g>
<g><path style="opacity:0.149" fill="#3b312e" d="M 754.5,70.5 C 757.5,71.1667 760.5,71.8333 763.5,72.5C 760.5,72.5 757.5,72.5 754.5,72.5C 754.5,127.167 754.5,181.833 754.5,236.5C 757.5,236.5 760.5,236.5 763.5,236.5C 760.375,237.479 757.042,237.813 753.5,237.5C 753.667,183.499 753.5,129.499 753,75.5C 752.751,74.376 752.251,73.376 751.5,72.5C 746.886,73.7562 742.219,74.7562 737.5,75.5C 742.956,73.4665 748.623,71.7998 754.5,70.5 Z"/></g>
<g><path style="opacity:0.137" fill="#554d50" d="M 102.5,117.5 C 105.068,122.525 107.068,127.859 108.5,133.5C 107.883,133.389 107.383,133.056 107,132.5C 104.905,127.653 103.405,122.653 102.5,117.5 Z"/></g>
<g><path style="opacity:0.153" fill="#5f565a" d="M 87.5,117.5 C 86.4889,123.801 84.1556,129.467 80.5,134.5C 82.0102,127.829 84.3435,122.162 87.5,117.5 Z"/></g>
<g><path style="opacity:0.09" fill="#5a4f58" d="M 65.5,136.5 C 66.0431,136.56 66.3764,136.893 66.5,137.5C 64.531,142.446 62.1976,147.113 59.5,151.5C 60.7344,146.117 62.7344,141.117 65.5,136.5 Z"/></g>
<g><path style="opacity:0.188" fill="#281d26" d="M 428.5,80.5 C 429.302,81.9516 429.802,83.6183 430,85.5C 430.832,131.668 430.665,177.668 429.5,223.5C 429.629,177.905 429.463,132.238 429,86.5C 428.749,84.567 428.249,82.7337 427.5,81C 427.728,80.6012 428.062,80.4346 428.5,80.5 Z"/></g>
<g><path style="opacity:1" fill="#d0a62d" d="M 1167.5,161.5 C 1168.6,163.277 1169.43,165.277 1170,167.5C 1171.36,168.38 1172.86,168.714 1174.5,168.5C 1174.69,162.112 1174.19,155.778 1173,149.5C 1172.35,147.277 1170.85,146.11 1168.5,146C 1152.81,140.392 1138.98,143.225 1127,154.5C 1122.67,162.245 1121.34,170.578 1123,179.5C 1125.21,184.1 1128.05,188.266 1131.5,192C 1136.4,195.752 1141.4,199.252 1146.5,202.5C 1140.77,200.135 1135.1,197.469 1129.5,194.5C 1125.58,189.66 1122.41,184.327 1120,178.5C 1118.83,170.207 1119.83,162.207 1123,154.5C 1125.02,152.478 1127.02,150.478 1129,148.5C 1131.08,149.943 1131.91,149.276 1131.5,146.5C 1138.79,143.775 1146.29,141.775 1154,140.5C 1160.09,141.968 1166.25,143.135 1172.5,144C 1173.33,144.915 1174.33,145.581 1175.5,146C 1175.04,146.414 1174.71,146.914 1174.5,147.5C 1177.28,155.596 1178.11,163.929 1177,172.5C 1174.26,173.61 1171.43,173.777 1168.5,173C 1169.06,172.275 1169.39,171.442 1169.5,170.5C 1167.87,167.765 1167.21,164.765 1167.5,161.5 Z"/></g>
<g><path style="opacity:1" fill="#030203" d="M 1216.5,152.5 C 1216.5,152.833 1216.5,153.167 1216.5,153.5C 1214.65,153.222 1213.32,153.889 1212.5,155.5C 1213.83,178.696 1213.83,201.863 1212.5,225C 1213.87,229.462 1215.21,233.962 1216.5,238.5C 1218.43,241.299 1221.1,242.799 1224.5,243C 1216.05,243.037 1207.38,242.703 1198.5,242C 1199.67,239.993 1200.34,237.827 1200.5,235.5C 1200.5,235.167 1200.5,234.833 1200.5,234.5C 1201.12,234.389 1201.62,234.056 1202,233.5C 1202.47,206.895 1202.63,180.395 1202.5,154C 1199.26,151.429 1195.6,149.596 1191.5,148.5C 1200.56,147.086 1209.56,147.253 1218.5,149C 1217.5,150 1216.5,151 1215.5,152C 1215.73,152.399 1216.06,152.565 1216.5,152.5 Z"/></g>
<g><path style="opacity:1" fill="#bda23d" d="M 906.5,155.5 C 873.996,155.168 841.662,155.502 809.5,156.5C 809.5,177.833 809.5,199.167 809.5,220.5C 808.169,198.431 808.169,176.264 809.5,154C 841.975,154.124 874.309,154.624 906.5,155.5 Z"/></g>
<g><path style="opacity:0.075" fill="#6d6868" d="M 73.5,154.5 C 73.3404,156.153 72.6737,157.486 71.5,158.5C 70.9569,158.44 70.6236,158.107 70.5,157.5C 70.8793,155.787 71.8793,154.787 73.5,154.5 Z"/></g>
<g><path style="opacity:0.37" fill="#392831" d="M 362.5,127.5 C 363.794,151.817 363.794,176.15 362.5,200.5C 361.893,200.376 361.56,200.043 361.5,199.5C 362.833,199.167 362.833,198.833 361.5,198.5C 361.79,174.743 362.123,151.076 362.5,127.5 Z"/></g>
<g><path style="opacity:1" fill="#2d1803" d="M 809.5,156.5 C 841.662,155.502 873.996,155.168 906.5,155.5C 906.833,155.5 907.167,155.5 907.5,155.5C 907.5,177.167 907.5,198.833 907.5,220.5C 907.167,220.5 906.833,220.5 906.5,220.5C 906.822,199.454 906.488,178.454 905.5,157.5C 873.507,156.5 841.507,156.167 809.5,156.5 Z"/></g>
<g><path style="opacity:1" fill="#130803" d="M 1236.5,146.5 C 1246.49,147.075 1254.32,151.408 1260,159.5C 1261.48,162.158 1262.64,164.825 1263.5,167.5C 1263.71,174.275 1263.05,180.942 1261.5,187.5C 1252.81,200.677 1240.48,206.677 1224.5,205.5C 1223.83,205.5 1223.17,205.5 1222.5,205.5C 1220.49,204.076 1218.15,203.41 1215.5,203.5C 1215.17,213.681 1215.51,223.681 1216.5,233.5C 1218.9,239.928 1223.56,242.261 1230.5,240.5C 1230.5,242.167 1230.5,243.833 1230.5,245.5C 1216.5,245.5 1202.5,245.5 1188.5,245.5C 1188.5,243.833 1188.5,242.167 1188.5,240.5C 1193.63,241.135 1197.63,239.468 1200.5,235.5C 1200.34,237.827 1199.67,239.993 1198.5,242C 1207.38,242.703 1216.05,243.037 1224.5,243C 1221.1,242.799 1218.43,241.299 1216.5,238.5C 1215.21,233.962 1213.87,229.462 1212.5,225C 1213.83,201.863 1213.83,178.696 1212.5,155.5C 1213.32,153.889 1214.65,153.222 1216.5,153.5C 1215.52,168.422 1215.18,183.422 1215.5,198.5C 1229.12,202.8 1239.29,198.8 1246,186.5C 1246.49,184.866 1246.66,183.199 1246.5,181.5C 1246.5,181.167 1246.5,180.833 1246.5,180.5C 1248.24,173.328 1247.4,166.328 1244,159.5C 1243.29,158.619 1242.46,157.953 1241.5,157.5C 1239.1,154.206 1235.77,152.373 1231.5,152C 1226.45,151.274 1221.45,151.441 1216.5,152.5C 1216.06,152.565 1215.73,152.399 1215.5,152C 1216.5,151 1217.5,150 1218.5,149C 1209.56,147.253 1200.56,147.086 1191.5,148.5C 1195.6,149.596 1199.26,151.429 1202.5,154C 1202.63,180.395 1202.47,206.895 1202,233.5C 1201.62,234.056 1201.12,234.389 1200.5,234.5C 1200.67,207.831 1200.5,181.165 1200,154.5C 1199.61,153.572 1198.95,152.905 1198,152.5C 1195.17,151.767 1192.33,151.1 1189.5,150.5C 1189.5,149.167 1189.5,147.833 1189.5,146.5C 1205.17,146.5 1220.83,146.5 1236.5,146.5 Z"/></g>
<g><path style="opacity:1" fill="#0f0604" d="M 1167.5,161.5 C 1166.23,158.475 1164.57,155.642 1162.5,153C 1156.89,149.791 1150.89,148.791 1144.5,150C 1143.94,150.383 1143.61,150.883 1143.5,151.5C 1143.17,151.5 1142.83,151.5 1142.5,151.5C 1140.98,151.511 1139.82,152.177 1139,153.5C 1132.49,165.925 1134.99,176.091 1146.5,184C 1154.99,188.077 1162.99,192.911 1170.5,198.5C 1178.69,205.256 1181.52,213.923 1179,224.5C 1177.67,227.833 1176.33,231.167 1175,234.5C 1164.38,246.206 1151.21,250.372 1135.5,247C 1131.39,245.795 1127.39,244.295 1123.5,242.5C 1121.2,234.358 1119.87,226.024 1119.5,217.5C 1121.29,217.215 1122.95,217.548 1124.5,218.5C 1126.67,223.5 1128.83,228.5 1131,233.5C 1139.17,241.773 1148.67,243.607 1159.5,239C 1166.14,231.393 1167.31,222.893 1163,213.5C 1161.01,212.335 1159.17,211.002 1157.5,209.5C 1157.05,208.542 1156.38,207.708 1155.5,207C 1152.5,205.502 1149.5,204.002 1146.5,202.5C 1141.4,199.252 1136.4,195.752 1131.5,192C 1128.05,188.266 1125.21,184.1 1123,179.5C 1121.34,170.578 1122.67,162.245 1127,154.5C 1138.98,143.225 1152.81,140.392 1168.5,146C 1170.85,146.11 1172.35,147.277 1173,149.5C 1174.19,155.778 1174.69,162.112 1174.5,168.5C 1172.86,168.714 1171.36,168.38 1170,167.5C 1169.43,165.277 1168.6,163.277 1167.5,161.5 Z"/></g>
<g><path style="opacity:1" fill="#c19c38" d="M 1167.5,161.5 C 1166.29,160.766 1164.96,160.433 1163.5,160.5C 1163.79,154.96 1161.13,152.126 1155.5,152C 1151.51,151.501 1147.51,151.334 1143.5,151.5C 1143.61,150.883 1143.94,150.383 1144.5,150C 1150.89,148.791 1156.89,149.791 1162.5,153C 1164.57,155.642 1166.23,158.475 1167.5,161.5 Z"/></g>
<g><path style="opacity:1" fill="#edb206" d="M 1241.5,157.5 C 1240.91,162.884 1242.41,167.55 1246,171.5C 1246.5,174.482 1246.66,177.482 1246.5,180.5C 1246.5,180.833 1246.5,181.167 1246.5,181.5C 1243.26,183.983 1241.59,187.316 1241.5,191.5C 1240.17,191.5 1238.83,191.5 1237.5,191.5C 1237.5,192.5 1237.5,193.5 1237.5,194.5C 1234.92,194.569 1232.92,195.735 1231.5,198C 1226.48,198.498 1221.48,198.332 1216.5,197.5C 1216.33,183.829 1216.5,170.163 1217,156.5C 1219.71,154.208 1222.88,153.208 1226.5,153.5C 1231.85,153.753 1236.85,155.087 1241.5,157.5 Z"/></g>
<g><path style="opacity:1" fill="#c8a236" d="M 1241.5,157.5 C 1236.85,155.087 1231.85,153.753 1226.5,153.5C 1222.88,153.208 1219.71,154.208 1217,156.5C 1216.5,170.163 1216.33,183.829 1216.5,197.5C 1221.48,198.332 1226.48,198.498 1231.5,198C 1232.92,195.735 1234.92,194.569 1237.5,194.5C 1237.5,193.5 1237.5,192.5 1237.5,191.5C 1238.83,191.5 1240.17,191.5 1241.5,191.5C 1241.59,187.316 1243.26,183.983 1246.5,181.5C 1246.66,183.199 1246.49,184.866 1246,186.5C 1239.29,198.8 1229.12,202.8 1215.5,198.5C 1215.18,183.422 1215.52,168.422 1216.5,153.5C 1216.5,153.167 1216.5,152.833 1216.5,152.5C 1221.45,151.441 1226.45,151.274 1231.5,152C 1235.77,152.373 1239.1,154.206 1241.5,157.5 Z"/></g>
<g><path style="opacity:0.435" fill="#463c44" d="M 68.5,164.5 C 68.9418,165.231 69.1085,166.231 69,167.5C 86.3871,166.293 103.554,166.293 120.5,167.5C 103.008,168.497 85.3412,168.83 67.5,168.5C 67.2322,166.901 67.5655,165.568 68.5,164.5 Z"/></g>
<g><path style="opacity:1" fill="#d2aa2f" d="M 1241.5,157.5 C 1242.46,157.953 1243.29,158.619 1244,159.5C 1247.4,166.328 1248.24,173.328 1246.5,180.5C 1246.66,177.482 1246.5,174.482 1246,171.5C 1242.41,167.55 1240.91,162.884 1241.5,157.5 Z"/></g>
<g><path style="opacity:0.384" fill="#392e35" d="M 239.5,105.5 C 238.167,105.833 238.167,106.167 239.5,106.5C 239.389,107.117 239.056,107.617 238.5,108C 239.196,143.78 239.863,179.614 240.5,215.5C 239.732,214.737 239.232,213.737 239,212.5C 237.29,176.177 237.123,139.844 238.5,103.5C 239.298,103.957 239.631,104.624 239.5,105.5 Z"/></g>
<g><path style="opacity:1" fill="#d8ab35" d="M 1263.5,167.5 C 1262.64,164.825 1261.48,162.158 1260,159.5C 1254.32,151.408 1246.49,147.075 1236.5,146.5C 1220.68,145.504 1204.68,145.17 1188.5,145.5C 1188.22,147.415 1188.55,149.081 1189.5,150.5C 1192.33,151.1 1195.17,151.767 1198,152.5C 1198.95,152.905 1199.61,153.572 1200,154.5C 1200.5,181.165 1200.67,207.831 1200.5,234.5C 1200.5,234.833 1200.5,235.167 1200.5,235.5C 1197.63,239.468 1193.63,241.135 1188.5,240.5C 1188.5,242.167 1188.5,243.833 1188.5,245.5C 1187.5,245.5 1186.5,245.5 1185.5,245.5C 1185.5,243.5 1185.5,241.5 1185.5,239.5C 1188.37,239.915 1190.53,238.915 1192,236.5C 1192.31,237.308 1192.81,237.975 1193.5,238.5C 1194.55,237.115 1195.88,236.115 1197.5,235.5C 1198.5,208.175 1198.83,180.841 1198.5,153.5C 1196.72,153.786 1195.06,154.453 1193.5,155.5C 1190.98,154.238 1188.31,153.571 1185.5,153.5C 1185.09,149.817 1185.92,146.483 1188,143.5C 1206.09,144.326 1224.26,144.826 1242.5,145C 1254.84,147.518 1261.84,155.018 1263.5,167.5 Z"/></g>
<g><path style="opacity:1" fill="#755412" d="M 1236.5,146.5 C 1220.83,146.5 1205.17,146.5 1189.5,146.5C 1189.5,147.833 1189.5,149.167 1189.5,150.5C 1188.55,149.081 1188.22,147.415 1188.5,145.5C 1204.68,145.17 1220.68,145.504 1236.5,146.5 Z"/></g>
<g><path style="opacity:1" fill="#d1a929" d="M 1142.5,151.5 C 1136.61,161.125 1137.28,170.292 1144.5,179C 1149.8,181.93 1155.13,184.764 1160.5,187.5C 1161.39,188.325 1161.72,189.325 1161.5,190.5C 1166.57,190.977 1169.57,193.643 1170.5,198.5C 1162.99,192.911 1154.99,188.077 1146.5,184C 1134.99,176.091 1132.49,165.925 1139,153.5C 1139.82,152.177 1140.98,151.511 1142.5,151.5 Z"/></g>
<g><path style="opacity:1" fill="#b9972f" d="M 1261.5,187.5 C 1261.33,189.861 1260.99,192.194 1260.5,194.5C 1259.45,194.351 1258.45,194.517 1257.5,195C 1256.87,196.892 1255.87,198.559 1254.5,200C 1249.83,202 1245.17,204 1240.5,206C 1234.98,206.817 1229.65,206.651 1224.5,205.5C 1240.48,206.677 1252.81,200.677 1261.5,187.5 Z"/></g>
<g><path style="opacity:1" fill="#e1b21e" d="M 1260.5,194.5 C 1260.71,196.144 1260.38,197.644 1259.5,199C 1255.44,203.246 1250.44,205.58 1244.5,206C 1245.17,206.333 1245.83,206.667 1246.5,207C 1238.78,207.939 1231.11,209.105 1223.5,210.5C 1223.5,209.5 1223.5,208.5 1223.5,207.5C 1222.17,207.5 1220.83,207.5 1219.5,207.5C 1220.01,217.474 1220.17,227.474 1220,237.5C 1223.51,238.821 1227.01,239.821 1230.5,240.5C 1223.56,242.261 1218.9,239.928 1216.5,233.5C 1216.5,224.167 1216.5,214.833 1216.5,205.5C 1218.5,205.5 1220.5,205.5 1222.5,205.5C 1223.17,205.5 1223.83,205.5 1224.5,205.5C 1229.65,206.651 1234.98,206.817 1240.5,206C 1245.17,204 1249.83,202 1254.5,200C 1255.87,198.559 1256.87,196.892 1257.5,195C 1258.45,194.517 1259.45,194.351 1260.5,194.5 Z"/></g>
<g><path style="opacity:1" fill="#8a6719" d="M 1222.5,205.5 C 1220.5,205.5 1218.5,205.5 1216.5,205.5C 1216.5,214.833 1216.5,224.167 1216.5,233.5C 1215.51,223.681 1215.17,213.681 1215.5,203.5C 1218.15,203.41 1220.49,204.076 1222.5,205.5 Z"/></g>
<g><path style="opacity:0.208" fill="#5c5358" d="M 53.5,206.5 C 51.8424,213.155 50.1757,219.822 48.5,226.5C 47.3871,225.054 47.2204,223.387 48,221.5C 49.3918,216.216 51.2251,211.216 53.5,206.5 Z"/></g>
<g><path style="opacity:1" fill="#d0a82e" d="M 1157.5,209.5 C 1159.17,211.002 1161.01,212.335 1163,213.5C 1167.31,222.893 1166.14,231.393 1159.5,239C 1148.67,243.607 1139.17,241.773 1131,233.5C 1128.83,228.5 1126.67,223.5 1124.5,218.5C 1122.95,217.548 1121.29,217.215 1119.5,217.5C 1120.92,215.692 1122.92,215.025 1125.5,215.5C 1125.86,220.624 1128.02,223.957 1132,225.5C 1132.56,229.127 1134.06,232.293 1136.5,235C 1139.18,235.249 1141.51,236.249 1143.5,238C 1148.53,238.829 1153.53,238.662 1158.5,237.5C 1159.93,235.78 1160.77,233.78 1161,231.5C 1162.02,232.634 1162.68,232.301 1163,230.5C 1163.67,226.167 1163.67,221.833 1163,217.5C 1160.92,214.935 1159.09,212.268 1157.5,209.5 Z"/></g>
<g><path style="opacity:1" fill="#d3af5a" d="M 1106.5,-0.5 C 1107.83,-0.5 1109.17,-0.5 1110.5,-0.5C 1110.18,1.04814 1109.18,1.71481 1107.5,1.5C 1106.17,51.8289 1105.5,102.496 1105.5,153.5C 1105.5,204.57 1105.84,255.57 1106.5,306.5C 1105.83,306.5 1105.17,306.5 1104.5,306.5C 1104.5,204.5 1104.5,102.5 1104.5,0.5C 1105.49,0.67158 1106.16,0.338246 1106.5,-0.5 Z"/></g>
<g><path style="opacity:1" fill="#e4b414" d="M 807.5,95.5 C 807.17,111.342 807.504,127.009 808.5,142.5C 841.5,143.833 874.5,143.833 907.5,142.5C 908.302,141.048 908.802,139.382 909,137.5C 909.5,123.504 909.667,109.504 909.5,95.5C 910.234,110.295 910.901,124.961 911.5,139.5C 908.956,141.611 908.956,143.778 911.5,146C 908.038,148.239 906.705,151.406 907.5,155.5C 907.167,155.5 906.833,155.5 906.5,155.5C 874.309,154.624 841.975,154.124 809.5,154C 808.169,176.264 808.169,198.431 809.5,220.5C 809.777,224.644 811.11,228.311 813.5,231.5C 814.15,233.435 814.483,235.435 814.5,237.5C 820.537,237.171 826.537,237.504 832.5,238.5C 833.767,240.371 833.767,242.204 832.5,244C 807.5,244.667 782.5,244.667 757.5,244C 756.62,242.644 756.286,241.144 756.5,239.5C 760.119,238.756 763.785,238.423 767.5,238.5C 767.5,239.833 767.5,241.167 767.5,242.5C 788.503,242.667 809.503,242.5 830.5,242C 830.957,241.586 831.291,241.086 831.5,240.5C 825.674,238.719 819.841,238.386 814,239.5C 813.022,236.195 811.022,233.862 808,232.5C 806.158,234.16 803.991,235.16 801.5,235.5C 801.784,232.746 802.451,230.08 803.5,227.5C 804.736,228.246 806.07,228.579 807.5,228.5C 807.11,204.649 806.443,180.815 805.5,157C 805.643,154.849 806.643,153.182 808.5,152C 839.524,151.388 870.524,151.388 901.5,152C 904.303,149.778 904.137,147.945 901,146.5C 870.958,147.159 840.958,147.826 811,148.5C 809.989,147.663 808.822,147.33 807.5,147.5C 806.9,143.333 806.234,139.167 805.5,135C 806.103,121.676 806.769,108.51 807.5,95.5 Z"/></g>
<g><path style="opacity:1" fill="#6f5811" d="M 809.5,103.5 C 809.5,116.5 809.5,129.5 809.5,142.5C 842.167,142.5 874.833,142.5 907.5,142.5C 874.5,143.833 841.5,143.833 808.5,142.5C 808.171,129.323 808.505,116.323 809.5,103.5 Z"/></g>
<g><path style="opacity:1" fill="#d2ad3d" d="M 777.5,231.5 C 777.489,233.017 776.823,234.184 775.5,235C 772.842,236.478 770.175,237.645 767.5,238.5C 763.785,238.423 760.119,238.756 756.5,239.5C 756.286,241.144 756.62,242.644 757.5,244C 782.5,244.667 807.5,244.667 832.5,244C 833.767,242.204 833.767,240.371 832.5,238.5C 826.537,237.504 820.537,237.171 814.5,237.5C 814.483,235.435 814.15,233.435 813.5,231.5C 815.308,232.907 817.308,234.074 819.5,235C 824.681,235.6 829.681,236.434 834.5,237.5C 834.5,240.167 834.5,242.833 834.5,245.5C 807.833,245.5 781.167,245.5 754.5,245.5C 754.167,245.5 753.833,245.5 753.5,245.5C 753.5,242.833 753.5,240.167 753.5,237.5C 757.042,237.813 760.375,237.479 763.5,236.5C 766.152,236.59 768.485,235.924 770.5,234.5C 772.821,233.523 775.154,232.523 777.5,231.5 Z"/></g>
<g><path style="opacity:1" fill="#cfac42" d="M 906.5,220.5 C 906.833,220.5 907.167,220.5 907.5,220.5C 908.531,227.265 906.198,232.432 900.5,236C 894.06,236.23 887.727,237.063 881.5,238.5C 881.141,240.766 881.808,242.599 883.5,244C 908.833,244.667 934.167,244.667 959.5,244C 960.767,242.204 960.767,240.371 959.5,238.5C 955.878,237.675 952.211,237.175 948.5,237C 947.944,236.617 947.611,236.117 947.5,235.5C 952.493,235.916 957.493,236.249 962.5,236.5C 962.5,239.5 962.5,242.5 962.5,245.5C 935.167,245.5 907.833,245.5 880.5,245.5C 880.5,242.833 880.5,240.167 880.5,237.5C 887.462,236.411 894.462,234.911 901.5,233C 904.635,229.428 906.302,225.262 906.5,220.5 Z"/></g>
<g><path style="opacity:0.145" fill="#292426" d="M 268.5,240.5 C 269.807,242.223 269.807,244.057 268.5,246C 219.998,246.832 171.665,246.665 123.5,245.5C 171.501,245.667 219.501,245.5 267.5,245C 268.38,243.644 268.714,242.144 268.5,240.5 Z"/></g>
<g><path style="opacity:0.141" fill="#292428" d="M 488.5,243.5 C 488.5,244.5 488.5,245.5 488.5,246.5C 460.328,246.831 432.328,246.498 404.5,245.5C 432.726,246.145 460.726,245.478 488.5,243.5 Z"/></g>
<g><path style="opacity:1" fill="#715510" d="M 834.5,237.5 C 835.477,240.287 835.81,243.287 835.5,246.5C 808.328,246.831 781.328,246.498 754.5,245.5C 781.167,245.5 807.833,245.5 834.5,245.5C 834.5,242.833 834.5,240.167 834.5,237.5 Z"/></g>
<g><path style="opacity:1" fill="#715411" d="M 880.5,237.5 C 880.5,240.167 880.5,242.833 880.5,245.5C 907.833,245.5 935.167,245.5 962.5,245.5C 935.005,246.498 907.338,246.831 879.5,246.5C 879.19,243.287 879.523,240.287 880.5,237.5 Z"/></g>
<g><path style="opacity:1" fill="#d7b23f" d="M 1230.5,240.5 C 1231.47,242.607 1231.8,244.941 1231.5,247.5C 1217.83,247.667 1204.16,247.5 1190.5,247C 1189.58,246.722 1188.92,246.222 1188.5,245.5C 1202.5,245.5 1216.5,245.5 1230.5,245.5C 1230.5,243.833 1230.5,242.167 1230.5,240.5 Z"/></g>
<g><path style="opacity:1" fill="#cea62f" d="M 1170.5,198.5 C 1172.02,198.511 1173.18,199.177 1174,200.5C 1174.33,199.833 1174.67,199.167 1175,198.5C 1180.19,205.401 1182.35,213.235 1181.5,222C 1182.72,230.093 1179.88,236.26 1173,240.5C 1172.51,241.793 1172.34,243.127 1172.5,244.5C 1163.31,246.81 1153.98,248.477 1144.5,249.5C 1122.29,249.771 1113.96,239.104 1119.5,217.5C 1119.87,226.024 1121.2,234.358 1123.5,242.5C 1127.39,244.295 1131.39,245.795 1135.5,247C 1151.21,250.372 1164.38,246.206 1175,234.5C 1176.33,231.167 1177.67,227.833 1179,224.5C 1181.52,213.923 1178.69,205.256 1170.5,198.5 Z"/></g>
<g><path style="opacity:0.067" fill="#a38017" d="M 1104.5,306.5 C 1105.17,306.5 1105.83,306.5 1106.5,306.5C 1164.17,306.5 1221.83,306.5 1279.5,306.5C 1279.5,307.167 1279.5,307.833 1279.5,308.5C 1220.66,308.832 1162,308.499 1103.5,307.5C 1104.17,307.5 1104.5,307.167 1104.5,306.5 Z"/></g>
</svg>
